<mxfile host="Electron" modified="2024-04-08T14:46:30.627Z" agent="Mozilla/5.0 (Windows NT 10.0; Win64; x64) AppleWebKit/537.36 (KHTML, like Gecko) draw.io/22.0.3 Chrome/114.0.5735.289 Electron/25.8.4 Safari/537.36" etag="s_FuZGIoAvZ7UhLdQ-T8" version="22.0.3" type="device">
  <diagram id="C5RBs43oDa-KdzZeNtuy" name="Page-1">
    <mxGraphModel dx="1219" dy="722" grid="0" gridSize="10" guides="1" tooltips="1" connect="1" arrows="1" fold="1" page="0" pageScale="1" pageWidth="827" pageHeight="1169" math="0" shadow="0">
      <root>
        <mxCell id="WIyWlLk6GJQsqaUBKTNV-0" />
        <mxCell id="WIyWlLk6GJQsqaUBKTNV-1" parent="WIyWlLk6GJQsqaUBKTNV-0" />
        <mxCell id="ccS3K4prVrShULBh0jxt-0" value="회원 관리" style="rounded=0;whiteSpace=wrap;html=1;container=0;shadow=1;strokeWidth=1.5;fontSize=13;fontStyle=1" parent="WIyWlLk6GJQsqaUBKTNV-1" vertex="1">
          <mxGeometry x="120" y="20" width="100" height="40" as="geometry" />
        </mxCell>
        <mxCell id="ccS3K4prVrShULBh0jxt-1" value="회원가입 / 탈퇴" style="rounded=0;whiteSpace=wrap;html=1;container=0;shadow=1;strokeWidth=1.5;fontSize=13;fontStyle=1" parent="WIyWlLk6GJQsqaUBKTNV-1" vertex="1">
          <mxGeometry x="240" y="20" width="100" height="40" as="geometry" />
        </mxCell>
        <mxCell id="ccS3K4prVrShULBh0jxt-16" style="edgeStyle=orthogonalEdgeStyle;shape=connector;rounded=0;orthogonalLoop=1;jettySize=auto;html=1;exitX=1;exitY=0.5;exitDx=0;exitDy=0;entryX=0;entryY=0.5;entryDx=0;entryDy=0;labelBackgroundColor=default;strokeColor=default;align=center;verticalAlign=middle;fontFamily=Helvetica;fontSize=13;fontColor=default;endArrow=none;endFill=0;shadow=0;strokeWidth=1.5;fontStyle=1" parent="WIyWlLk6GJQsqaUBKTNV-1" source="ccS3K4prVrShULBh0jxt-0" target="ccS3K4prVrShULBh0jxt-1" edge="1">
          <mxGeometry relative="1" as="geometry" />
        </mxCell>
        <mxCell id="ccS3K4prVrShULBh0jxt-2" value="회원 정보 수정" style="rounded=0;whiteSpace=wrap;html=1;container=0;shadow=1;strokeWidth=1.5;fontSize=13;fontStyle=1" parent="WIyWlLk6GJQsqaUBKTNV-1" vertex="1">
          <mxGeometry x="240" y="80" width="100" height="40" as="geometry" />
        </mxCell>
        <mxCell id="ccS3K4prVrShULBh0jxt-17" style="edgeStyle=orthogonalEdgeStyle;shape=connector;rounded=0;orthogonalLoop=1;jettySize=auto;html=1;exitX=1;exitY=0.5;exitDx=0;exitDy=0;entryX=0;entryY=0.5;entryDx=0;entryDy=0;labelBackgroundColor=default;strokeColor=default;align=center;verticalAlign=middle;fontFamily=Helvetica;fontSize=13;fontColor=default;endArrow=none;endFill=0;shadow=0;strokeWidth=1.5;fontStyle=1" parent="WIyWlLk6GJQsqaUBKTNV-1" source="ccS3K4prVrShULBh0jxt-0" target="ccS3K4prVrShULBh0jxt-2" edge="1">
          <mxGeometry relative="1" as="geometry">
            <Array as="points">
              <mxPoint x="230" y="40" />
              <mxPoint x="230" y="100" />
            </Array>
          </mxGeometry>
        </mxCell>
        <mxCell id="ccS3K4prVrShULBh0jxt-3" value="참가한 챌린지" style="rounded=0;whiteSpace=wrap;html=1;container=0;shadow=1;strokeWidth=1.5;fontSize=13;fontStyle=1" parent="WIyWlLk6GJQsqaUBKTNV-1" vertex="1">
          <mxGeometry x="240" y="140" width="100" height="40" as="geometry" />
        </mxCell>
        <mxCell id="ccS3K4prVrShULBh0jxt-22" style="edgeStyle=orthogonalEdgeStyle;shape=connector;rounded=0;orthogonalLoop=1;jettySize=auto;html=1;exitX=1;exitY=0.5;exitDx=0;exitDy=0;entryX=0;entryY=0.5;entryDx=0;entryDy=0;labelBackgroundColor=default;strokeColor=default;align=center;verticalAlign=middle;fontFamily=Helvetica;fontSize=13;fontColor=default;endArrow=none;endFill=0;shadow=0;strokeWidth=1.5;fontStyle=1" parent="WIyWlLk6GJQsqaUBKTNV-1" source="ccS3K4prVrShULBh0jxt-0" target="ccS3K4prVrShULBh0jxt-3" edge="1">
          <mxGeometry relative="1" as="geometry">
            <Array as="points">
              <mxPoint x="230" y="40" />
              <mxPoint x="230" y="160" />
            </Array>
          </mxGeometry>
        </mxCell>
        <mxCell id="Ddrkf_U3SmuqEeUaq5jr-5" style="edgeStyle=orthogonalEdgeStyle;rounded=0;orthogonalLoop=1;jettySize=auto;html=1;exitX=1;exitY=0.5;exitDx=0;exitDy=0;entryX=0;entryY=0.5;entryDx=0;entryDy=0;endArrow=none;endFill=0;strokeWidth=1.5;" parent="WIyWlLk6GJQsqaUBKTNV-1" source="ccS3K4prVrShULBh0jxt-25" target="ccS3K4prVrShULBh0jxt-31" edge="1">
          <mxGeometry relative="1" as="geometry" />
        </mxCell>
        <mxCell id="Ddrkf_U3SmuqEeUaq5jr-6" style="edgeStyle=orthogonalEdgeStyle;shape=connector;rounded=0;orthogonalLoop=1;jettySize=auto;html=1;exitX=1;exitY=0.5;exitDx=0;exitDy=0;entryX=0;entryY=0.5;entryDx=0;entryDy=0;labelBackgroundColor=default;strokeColor=default;strokeWidth=1.5;align=center;verticalAlign=middle;fontFamily=Helvetica;fontSize=11;fontColor=default;endArrow=none;endFill=0;" parent="WIyWlLk6GJQsqaUBKTNV-1" source="ccS3K4prVrShULBh0jxt-25" target="ccS3K4prVrShULBh0jxt-34" edge="1">
          <mxGeometry relative="1" as="geometry">
            <Array as="points">
              <mxPoint x="230" y="240" />
              <mxPoint x="230" y="302" />
            </Array>
          </mxGeometry>
        </mxCell>
        <mxCell id="Ddrkf_U3SmuqEeUaq5jr-11" style="edgeStyle=orthogonalEdgeStyle;shape=connector;rounded=0;orthogonalLoop=1;jettySize=auto;html=1;exitX=1;exitY=0.5;exitDx=0;exitDy=0;entryX=0;entryY=0.5;entryDx=0;entryDy=0;labelBackgroundColor=default;strokeColor=default;strokeWidth=1.5;align=center;verticalAlign=middle;fontFamily=Helvetica;fontSize=11;fontColor=default;endArrow=none;endFill=0;" parent="WIyWlLk6GJQsqaUBKTNV-1" source="ccS3K4prVrShULBh0jxt-25" target="Ddrkf_U3SmuqEeUaq5jr-10" edge="1">
          <mxGeometry relative="1" as="geometry">
            <Array as="points">
              <mxPoint x="230" y="240" />
              <mxPoint x="230" y="420" />
            </Array>
          </mxGeometry>
        </mxCell>
        <mxCell id="ccS3K4prVrShULBh0jxt-25" value="챌린지" style="rounded=0;whiteSpace=wrap;html=1;shadow=1;strokeWidth=1.5;fontSize=13;fontStyle=1" parent="WIyWlLk6GJQsqaUBKTNV-1" vertex="1">
          <mxGeometry x="120" y="220" width="100" height="40" as="geometry" />
        </mxCell>
        <mxCell id="ccS3K4prVrShULBh0jxt-31" value="챌린지 조회" style="rounded=0;whiteSpace=wrap;html=1;shadow=1;strokeWidth=1.5;fontSize=13;fontStyle=1" parent="WIyWlLk6GJQsqaUBKTNV-1" vertex="1">
          <mxGeometry x="240" y="220" width="100" height="40" as="geometry" />
        </mxCell>
        <mxCell id="Ddrkf_U3SmuqEeUaq5jr-16" style="edgeStyle=orthogonalEdgeStyle;shape=connector;rounded=0;orthogonalLoop=1;jettySize=auto;html=1;exitX=1;exitY=0.5;exitDx=0;exitDy=0;entryX=0;entryY=0.5;entryDx=0;entryDy=0;labelBackgroundColor=default;strokeColor=default;strokeWidth=1.5;align=center;verticalAlign=middle;fontFamily=Helvetica;fontSize=11;fontColor=default;endArrow=none;endFill=0;" parent="WIyWlLk6GJQsqaUBKTNV-1" source="ccS3K4prVrShULBh0jxt-34" target="Ddrkf_U3SmuqEeUaq5jr-8" edge="1">
          <mxGeometry relative="1" as="geometry" />
        </mxCell>
        <mxCell id="Ddrkf_U3SmuqEeUaq5jr-17" style="edgeStyle=orthogonalEdgeStyle;shape=connector;rounded=0;orthogonalLoop=1;jettySize=auto;html=1;exitX=1;exitY=0.5;exitDx=0;exitDy=0;entryX=0;entryY=0.5;entryDx=0;entryDy=0;labelBackgroundColor=default;strokeColor=default;strokeWidth=1.5;align=center;verticalAlign=middle;fontFamily=Helvetica;fontSize=11;fontColor=default;endArrow=none;endFill=0;" parent="WIyWlLk6GJQsqaUBKTNV-1" source="ccS3K4prVrShULBh0jxt-34" target="Ddrkf_U3SmuqEeUaq5jr-9" edge="1">
          <mxGeometry relative="1" as="geometry">
            <Array as="points">
              <mxPoint x="350" y="302" />
              <mxPoint x="350" y="362" />
            </Array>
          </mxGeometry>
        </mxCell>
        <mxCell id="ccS3K4prVrShULBh0jxt-34" value="챌린지 등록" style="rounded=0;whiteSpace=wrap;html=1;shadow=1;strokeWidth=1.5;fontSize=13;fontStyle=1" parent="WIyWlLk6GJQsqaUBKTNV-1" vertex="1">
          <mxGeometry x="240" y="282" width="100" height="40" as="geometry" />
        </mxCell>
        <mxCell id="Ddrkf_U3SmuqEeUaq5jr-8" value="기간, 인원, 태그 설정" style="rounded=0;whiteSpace=wrap;html=1;shadow=1;strokeWidth=1.5;fontSize=13;fontStyle=1" parent="WIyWlLk6GJQsqaUBKTNV-1" vertex="1">
          <mxGeometry x="360" y="282" width="100" height="40" as="geometry" />
        </mxCell>
        <mxCell id="Ddrkf_U3SmuqEeUaq5jr-9" value="목표 설정" style="rounded=0;whiteSpace=wrap;html=1;shadow=1;strokeWidth=1.5;fontSize=13;fontStyle=1" parent="WIyWlLk6GJQsqaUBKTNV-1" vertex="1">
          <mxGeometry x="360" y="342" width="100" height="40" as="geometry" />
        </mxCell>
        <mxCell id="Ddrkf_U3SmuqEeUaq5jr-19" style="edgeStyle=orthogonalEdgeStyle;shape=connector;rounded=0;orthogonalLoop=1;jettySize=auto;html=1;exitX=1;exitY=0.5;exitDx=0;exitDy=0;entryX=0;entryY=0.5;entryDx=0;entryDy=0;labelBackgroundColor=default;strokeColor=default;strokeWidth=1.5;align=center;verticalAlign=middle;fontFamily=Helvetica;fontSize=11;fontColor=default;endArrow=none;endFill=0;" parent="WIyWlLk6GJQsqaUBKTNV-1" source="Ddrkf_U3SmuqEeUaq5jr-10" target="Ddrkf_U3SmuqEeUaq5jr-13" edge="1">
          <mxGeometry relative="1" as="geometry" />
        </mxCell>
        <mxCell id="Ddrkf_U3SmuqEeUaq5jr-10" value="챌린지 참가" style="rounded=0;whiteSpace=wrap;html=1;shadow=1;strokeWidth=1.5;fontSize=13;fontStyle=1" parent="WIyWlLk6GJQsqaUBKTNV-1" vertex="1">
          <mxGeometry x="240" y="400" width="100" height="40" as="geometry" />
        </mxCell>
        <mxCell id="Ddrkf_U3SmuqEeUaq5jr-13" value="채팅 작성" style="rounded=0;whiteSpace=wrap;html=1;shadow=1;strokeWidth=1.5;fontSize=13;fontStyle=1" parent="WIyWlLk6GJQsqaUBKTNV-1" vertex="1">
          <mxGeometry x="360" y="400" width="100" height="40" as="geometry" />
        </mxCell>
      </root>
    </mxGraphModel>
  </diagram>
</mxfile>
